<?xml version="1.0" ?><!DOCTYPE svg  PUBLIC '-//W3C//DTD SVG 1.0//EN'  'http://www.w3.org/TR/2001/REC-SVG-20010904/DTD/svg10.dtd' [
 <!ATTLIST svg xmlns:xlink CDATA #FIXED "http://www.w3.org/1999/xlink">
]><!-- Generated by Graphviz version 2.20.2 (Sun Oct 12 21:27:53 UTC 2008)
     For user: (plone)  --><!-- Title: G Pages: 1 --><svg height="188" viewBox="0.00 0.00 1494.00 188.00" width="1494" xmlns="http://www.w3.org/2000/svg" xmlns:xlink="http://www.w3.org/1999/xlink">
<g class="graph" id="graph0" transform="scale(1 1) rotate(0) translate(4 184)">
<title>G</title>
<polygon points="-4,4 -4,-184 1490,-184 1490,4 -4,4" style="fill:white;stroke:white;"/>
<!-- University -->
<g class="node" id="node1"><title>University</title>
<a onclick="top.SVGclick(110)" xlink:href="#" xlink:title="University">
<polygon points="925,-180 847,-180 847,-144 925,-144 925,-180" style="fill:none;stroke:black;"/>
<text style="font-family:Times New Roman;font-size:15.00;" text-anchor="middle" x="886" y="-157">University</text>
</a>
</g>
<!-- has_attributetype -->
<g class="node" id="node2"><title>has_attributetype</title>
<a xlink:title="has attributetypes">
<ellipse cx="248" cy="-90" rx="79.2166" ry="18" style="fill:none;stroke:black;"/>
<text style="font-family:Times New Roman;font-size:14.00;" text-anchor="middle" x="248" y="-85.9">has attributetypes</text>
</a>
</g>
<!-- University&#45;&gt;has_attributetype -->
<g class="edge" id="edge2"><title>University-&gt;has_attributetype</title>
<path d="M847,-159C756,-153 527,-136 336,-108 329,-107 322,-106 315,-105" style="fill:none;stroke:blue;"/>
<polygon points="315.492,-101.529 305,-103 314.119,-108.393 315.492,-101.529" style="fill:blue;stroke:blue;"/>
</g>
<!-- vicePresident -->
<g class="node" id="node16"><title>vicePresident</title>
<a xlink:title="vicePresident">
<ellipse cx="407" cy="-90" rx="62.0391" ry="18" style="fill:none;stroke:black;"/>
<text style="font-family:Times New Roman;font-size:14.00;" text-anchor="middle" x="407" y="-85.9">vicePresident</text>
</a>
</g>
<!-- University&#45;&gt;vicePresident -->
<g class="edge" id="edge16"><title>University-&gt;vicePresident</title>
<path d="M847,-158C774,-151 612,-133 478,-108 473,-107 468,-106 463,-104" style="fill:none;stroke:blue;"/>
<polygon points="463.492,-100.529 453,-102 462.119,-107.393 463.492,-100.529" style="fill:blue;stroke:blue;"/>
</g>
<!-- officerInCharge -->
<g class="node" id="node20"><title>officerInCharge</title>
<a xlink:title="officerInCharge">
<ellipse cx="559" cy="-90" rx="71.7694" ry="18" style="fill:none;stroke:black;"/>
<text style="font-family:Times New Roman;font-size:14.00;" text-anchor="middle" x="559" y="-85.9">officerInCharge</text>
</a>
</g>
<!-- University&#45;&gt;officerInCharge -->
<g class="edge" id="edge20"><title>University-&gt;officerInCharge</title>
<path d="M847,-153C798,-143 713,-124 640,-108 634,-107 629,-106 623,-104" style="fill:none;stroke:blue;"/>
<polygon points="623.492,-100.529 613,-102 622.119,-107.393 623.492,-100.529" style="fill:blue;stroke:blue;"/>
</g>
<!-- provost -->
<g class="node" id="node23"><title>provost</title>
<a xlink:title="provost">
<ellipse cx="690" cy="-90" rx="41.1906" ry="18" style="fill:none;stroke:black;"/>
<text style="font-family:Times New Roman;font-size:14.00;" text-anchor="middle" x="690" y="-85.9">provost</text>
</a>
</g>
<!-- University&#45;&gt;provost -->
<g class="edge" id="edge24"><title>University-&gt;provost</title>
<path d="M847,-148C813,-135 766,-118 731,-105" style="fill:none;stroke:blue;"/>
<polygon points="731.584,-101.521 721,-102 729.573,-108.226 731.584,-101.521" style="fill:blue;stroke:blue;"/>
</g>
<!-- athletics -->
<g class="node" id="node26"><title>athletics</title>
<a xlink:title="athletics">
<ellipse cx="1065" cy="-90" rx="41.8891" ry="18" style="fill:none;stroke:black;"/>
<text style="font-family:Times New Roman;font-size:14.00;" text-anchor="middle" x="1065" y="-85.9">athletics</text>
</a>
</g>
<!-- University&#45;&gt;athletics -->
<g class="edge" id="edge28"><title>University-&gt;athletics</title>
<path d="M925,-146C955,-134 995,-118 1025,-106" style="fill:none;stroke:blue;"/>
<polygon points="1026.28,-109.26 1034,-102 1023.44,-102.863 1026.28,-109.26" style="fill:blue;stroke:blue;"/>
</g>
<!-- viceChancellor -->
<g class="node" id="node30"><title>viceChancellor</title>
<a xlink:title="viceChancellor">
<ellipse cx="818" cy="-90" rx="68.7933" ry="18" style="fill:none;stroke:black;"/>
<text style="font-family:Times New Roman;font-size:14.00;" text-anchor="middle" x="818" y="-85.9">viceChancellor</text>
</a>
</g>
<!-- University&#45;&gt;viceChancellor -->
<g class="edge" id="edge32"><title>University-&gt;viceChancellor</title>
<path d="M869,-144C861,-135 851,-125 842,-116" style="fill:none;stroke:blue;"/>
<polygon points="844.219,-113.221 835,-108 838.951,-117.831 844.219,-113.221" style="fill:blue;stroke:blue;"/>
</g>
<!-- chancellor -->
<g class="node" id="node33"><title>chancellor</title>
<a xlink:title="chancellor">
<ellipse cx="955" cy="-90" rx="50.2242" ry="18" style="fill:none;stroke:black;"/>
<text style="font-family:Times New Roman;font-size:14.00;" text-anchor="middle" x="955" y="-85.9">chancellor</text>
</a>
</g>
<!-- University&#45;&gt;chancellor -->
<g class="edge" id="edge36"><title>University-&gt;chancellor</title>
<path d="M903,-144C912,-135 922,-124 932,-114" style="fill:none;stroke:blue;"/>
<polygon points="934.404,-116.546 939,-107 929.454,-111.596 934.404,-116.546" style="fill:blue;stroke:blue;"/>
</g>
<!-- campus -->
<g class="node" id="node36"><title>campus</title>
<a xlink:title="campus">
<ellipse cx="1166" cy="-90" rx="41.1906" ry="18" style="fill:none;stroke:black;"/>
<text style="font-family:Times New Roman;font-size:14.00;" text-anchor="middle" x="1166" y="-85.9">campus</text>
</a>
</g>
<!-- University&#45;&gt;campus -->
<g class="edge" id="edge40"><title>University-&gt;campus</title>
<path d="M925,-154C971,-144 1050,-127 1116,-108 1119,-107 1122,-106 1125,-105" style="fill:none;stroke:blue;"/>
<polygon points="1126.43,-108.226 1135,-102 1124.42,-101.521 1126.43,-108.226" style="fill:blue;stroke:blue;"/>
</g>
<!-- has_member -->
<g class="node" id="node39"><title>has_member</title>
<a xlink:title="has members">
<ellipse cx="1287" cy="-90" rx="62.0391" ry="18" style="fill:none;stroke:black;"/>
<text style="font-family:Times New Roman;font-size:14.00;" text-anchor="middle" x="1287" y="-85.9">has members</text>
</a>
</g>
<!-- University&#45;&gt;has_member -->
<g class="edge" id="edge44"><title>University-&gt;has_member</title>
<path d="M925,-157C987,-148 1111,-130 1216,-108 1221,-107 1226,-106 1231,-104" style="fill:none;stroke:blue;"/>
<polygon points="1231.88,-107.393 1241,-102 1230.51,-100.529 1231.88,-107.393" style="fill:blue;stroke:blue;"/>
</g>
<!-- type_of -->
<g class="node" id="node43"><title>type_of</title>
<a xlink:title="type of">
<ellipse cx="1410" cy="-90" rx="38.9134" ry="18" style="fill:none;stroke:black;"/>
<text style="font-family:Times New Roman;font-size:14.00;" text-anchor="middle" x="1410" y="-85.9">type of</text>
</a>
</g>
<!-- University&#45;&gt;type_of -->
<g class="edge" id="edge48"><title>University-&gt;type_of</title>
<path d="M925,-160C1006,-156 1200,-143 1358,-108 1362,-107 1366,-106 1370,-104" style="fill:none;stroke:blue;"/>
<polygon points="1371.43,-107.226 1380,-101 1369.42,-100.521 1371.43,-107.226" style="fill:blue;stroke:blue;"/>
</g>
<!-- formerName -->
<g class="node" id="node4"><title>formerName</title>
<a onclick="top.SVGclick(7736203)" xlink:href="#" xlink:title="formerName">
<polygon points="86,-36 4.26326e-14,-36 0,-1.77636e-14 86,-3.55271e-15 86,-36" style="fill:none;stroke:black;"/>
<text style="font-family:Times New Roman;font-size:14.00;" text-anchor="middle" x="43" y="-13.9">formerName</text>
</a>
</g>
<!-- has_attributetype&#45;&gt;formerName -->
<g class="edge" id="edge4"><title>has_attributetype-&gt;formerName</title>
<path d="M205,-75C173,-64 130,-49 96,-37" style="fill:none;stroke:blue;"/>
<polygon points="96.5847,-33.4643 86,-33 93.9849,-39.9636 96.5847,-33.4643" style="fill:blue;stroke:blue;"/>
</g>
<!-- faculty -->
<g class="node" id="node6"><title>faculty</title>
<a onclick="top.SVGclick(885)" xlink:href="#" xlink:title="faculty">
<polygon points="158,-36 104,-36 104,-1.77636e-14 158,-3.55271e-15 158,-36" style="fill:none;stroke:black;"/>
<text style="font-family:Times New Roman;font-size:14.00;" text-anchor="middle" x="131" y="-13.9">faculty</text>
</a>
</g>
<!-- has_attributetype&#45;&gt;faculty -->
<g class="edge" id="edge6"><title>has_attributetype-&gt;faculty</title>
<path d="M221,-73C205,-64 184,-51 167,-40" style="fill:none;stroke:blue;"/>
<polygon points="168.441,-36.7969 158,-35 165.042,-42.916 168.441,-36.7969" style="fill:blue;stroke:blue;"/>
</g>
<!-- doctoral -->
<g class="node" id="node8"><title>doctoral</title>
<a onclick="top.SVGclick(596)" xlink:href="#" xlink:title="doctoral">
<polygon points="238,-36 176,-36 176,-1.77636e-14 238,-3.55271e-15 238,-36" style="fill:none;stroke:black;"/>
<text style="font-family:Times New Roman;font-size:14.00;" text-anchor="middle" x="207" y="-13.9">doctoral</text>
</a>
</g>
<!-- has_attributetype&#45;&gt;doctoral -->
<g class="edge" id="edge8"><title>has_attributetype-&gt;doctoral</title>
<path d="M238,-72C233,-64 228,-54 222,-45" style="fill:none;stroke:blue;"/>
<polygon points="224.916,-43.0418 217,-36 218.797,-46.4414 224.916,-43.0418" style="fill:blue;stroke:blue;"/>
</g>
<!-- postgrad -->
<g class="node" id="node10"><title>postgrad</title>
<a onclick="top.SVGclick(717)" xlink:href="#" xlink:title="postgrad">
<polygon points="322,-36 256,-36 256,-1.77636e-14 322,-3.55271e-15 322,-36" style="fill:none;stroke:black;"/>
<text style="font-family:Times New Roman;font-size:14.00;" text-anchor="middle" x="289" y="-13.9">postgrad</text>
</a>
</g>
<!-- has_attributetype&#45;&gt;postgrad -->
<g class="edge" id="edge10"><title>has_attributetype-&gt;postgrad</title>
<path d="M258,-72C262,-64 268,-54 274,-45" style="fill:none;stroke:blue;"/>
<polygon points="277.203,-46.4414 279,-36 271.084,-43.0418 277.203,-46.4414" style="fill:blue;stroke:blue;"/>
</g>
<!-- other -->
<g class="node" id="node12"><title>other</title>
<a onclick="top.SVGclick(860)" xlink:href="#" xlink:title="other">
<polygon points="394,-36 340,-36 340,-1.77636e-14 394,-3.55271e-15 394,-36" style="fill:none;stroke:black;"/>
<text style="font-family:Times New Roman;font-size:14.00;" text-anchor="middle" x="367" y="-13.9">other</text>
</a>
</g>
<!-- has_attributetype&#45;&gt;other -->
<g class="edge" id="edge12"><title>has_attributetype-&gt;other</title>
<path d="M276,-73C292,-64 313,-51 331,-40" style="fill:none;stroke:blue;"/>
<polygon points="332.958,-42.916 340,-35 329.559,-36.7969 332.958,-42.916" style="fill:blue;stroke:blue;"/>
</g>
<!-- undergrad -->
<g class="node" id="node14"><title>undergrad</title>
<a onclick="top.SVGclick(849)" xlink:href="#" xlink:title="undergrad">
<polygon points="484,-36 412,-36 412,-1.77636e-14 484,-3.55271e-15 484,-36" style="fill:none;stroke:black;"/>
<text style="font-family:Times New Roman;font-size:14.00;" text-anchor="middle" x="448" y="-13.9">undergrad</text>
</a>
</g>
<!-- has_attributetype&#45;&gt;undergrad -->
<g class="edge" id="edge14"><title>has_attributetype-&gt;undergrad</title>
<path d="M292,-75C322,-65 360,-52 402,-37" style="fill:none;stroke:blue;"/>
<polygon points="404.015,-39.9636 412,-33 401.415,-33.4643 404.015,-39.9636" style="fill:blue;stroke:blue;"/>
</g>
<!-- Person -->
<g class="node" id="node18"><title>Person</title>
<a onclick="top.SVGclick(54)" xlink:href="#" xlink:title="Person">
<polygon points="717,-36 663,-36 663,-1.77636e-14 717,-3.55271e-15 717,-36" style="fill:none;stroke:black;"/>
<text style="font-family:Times New Roman;font-size:14.00;" text-anchor="middle" x="690" y="-13.9">Person</text>
</a>
</g>
<!-- vicePresident&#45;&gt;Person -->
<g class="edge" id="edge18"><title>vicePresident-&gt;Person</title>
<path d="M454,-78C509,-64 602,-40 653,-27" style="fill:none;stroke:blue;"/>
<polygon points="653.881,-30.3933 663,-25 652.508,-23.5292 653.881,-30.3933" style="fill:blue;stroke:blue;"/>
</g>
<!-- officerInCharge&#45;&gt;Person -->
<g class="edge" id="edge22"><title>officerInCharge-&gt;Person</title>
<path d="M589,-73C608,-63 633,-49 654,-38" style="fill:none;stroke:blue;"/>
<polygon points="655.958,-40.916 663,-33 652.559,-34.7969 655.958,-40.916" style="fill:blue;stroke:blue;"/>
</g>
<!-- provost&#45;&gt;Person -->
<g class="edge" id="edge26"><title>provost-&gt;Person</title>
<path d="M690,-72C690,-64 690,-55 690,-46" style="fill:none;stroke:blue;"/>
<polygon points="693.5,-46 690,-36 686.5,-46 693.5,-46" style="fill:blue;stroke:blue;"/>
</g>
<!-- owl#Thing -->
<g class="node" id="node28"><title>owl#Thing</title>
<a onclick="top.SVGclick(16)" xlink:href="#" xlink:title="owl#Thing">
<polygon points="1153,-36 1077,-36 1077,-1.77636e-14 1153,-3.55271e-15 1153,-36" style="fill:none;stroke:black;"/>
<text style="font-family:Times New Roman;font-size:14.00;" text-anchor="middle" x="1115" y="-13.9">owl#Thing</text>
</a>
</g>
<!-- athletics&#45;&gt;owl#Thing -->
<g class="edge" id="edge30"><title>athletics-&gt;owl#Thing</title>
<path d="M1077,-73C1083,-65 1090,-54 1096,-45" style="fill:none;stroke:blue;"/>
<polygon points="1099.37,-46.262 1102,-36 1093.54,-42.3791 1099.37,-46.262" style="fill:blue;stroke:blue;"/>
</g>
<!-- viceChancellor&#45;&gt;Person -->
<g class="edge" id="edge34"><title>viceChancellor-&gt;Person</title>
<path d="M789,-74C770,-63 746,-49 726,-38" style="fill:none;stroke:blue;"/>
<polygon points="727.441,-34.7969 717,-33 724.042,-40.916 727.441,-34.7969" style="fill:blue;stroke:blue;"/>
</g>
<!-- chancellor&#45;&gt;Person -->
<g class="edge" id="edge38"><title>chancellor-&gt;Person</title>
<path d="M917,-78C910,-76 903,-74 896,-72 837,-55 768,-38 727,-27" style="fill:none;stroke:blue;"/>
<polygon points="727.492,-23.5292 717,-25 726.119,-30.3933 727.492,-23.5292" style="fill:blue;stroke:blue;"/>
</g>
<!-- campus&#45;&gt;owl#Thing -->
<g class="edge" id="edge42"><title>campus-&gt;owl#Thing</title>
<path d="M1154,-73C1148,-65 1141,-54 1134,-44" style="fill:none;stroke:blue;"/>
<polygon points="1136.8,-41.9 1128,-36 1131.2,-46.1 1136.8,-41.9" style="fill:blue;stroke:blue;"/>
</g>
<!-- 8046 -->
<g class="node" id="node41"><title>8046</title>
<a xlink:title="8046">
<polygon points="1332,-36 1234,-36 1234,-1.77636e-14 1332,-3.55271e-15 1332,-36" style="fill:#ff8080;stroke:#ff8080;"/>
<text style="font-family:Times New Roman;font-size:14.00;" text-anchor="middle" x="1283" y="-13.9">8046 members</text>
</a>
</g>
<!-- has_member&#45;&gt;8046 -->
<g class="edge" id="edge46"><title>has_member-&gt;8046</title>
<path d="M1286,-72C1285,-64 1285,-55 1285,-46" style="fill:none;stroke:blue;"/>
<polygon points="1288.48,-45.6021 1284,-36 1281.51,-46.2987 1288.48,-45.6021" style="fill:blue;stroke:blue;"/>
</g>
<!-- EducationalInstitution -->
<g class="node" id="node45"><title>EducationalInstitution</title>
<a onclick="top.SVGclick(108)" xlink:href="#" xlink:title="EducationalInstitution">
<polygon points="1486,-36 1350,-36 1350,-1.77636e-14 1486,-3.55271e-15 1486,-36" style="fill:none;stroke:black;"/>
<text style="font-family:Times New Roman;font-size:14.00;" text-anchor="middle" x="1418" y="-13.9">EducationalInstitution</text>
</a>
</g>
<!-- type_of&#45;&gt;EducationalInstitution -->
<g class="edge" id="edge50"><title>type_of-&gt;EducationalInstitution</title>
<path d="M1412,-72C1413,-64 1414,-55 1415,-46" style="fill:none;stroke:blue;"/>
<polygon points="1418.49,-46.2987 1416,-36 1411.52,-45.6021 1418.49,-46.2987" style="fill:blue;stroke:blue;"/>
</g>
</g>
</svg>